<svg width="55" height="55" viewBox="0 0 55 55" fill="none" xmlns="http://www.w3.org/2000/svg">
<path d="M27.5 5.15625C23.0808 5.15625 18.7609 6.46669 15.0865 8.92185C11.4121 11.377 8.54822 14.8666 6.85708 18.9494C5.16593 23.0322 4.72345 27.5248 5.58559 31.8591C6.44773 36.1933 8.57576 40.1746 11.7006 43.2994C14.8254 46.4243 18.8067 48.5523 23.141 49.4144C27.4752 50.2766 31.9678 49.8341 36.0506 48.1429C40.1334 46.4518 43.623 43.5879 46.0782 39.9135C48.5333 36.2391 49.8438 31.9192 49.8438 27.5C49.8375 21.576 47.4814 15.8964 43.2925 11.7075C39.1036 7.51858 33.424 5.16251 27.5 5.15625ZM27.5 46.4063C23.7607 46.4063 20.1054 45.2974 16.9963 43.22C13.8871 41.1425 11.4639 38.1898 10.0329 34.7351C8.60194 31.2804 8.22754 27.479 8.95704 23.8116C9.68654 20.1441 11.4872 16.7754 14.1313 14.1313C16.7754 11.4872 20.1441 9.68653 23.8116 8.95703C27.479 8.22753 31.2805 8.60193 34.7351 10.0329C38.1898 11.4639 41.1425 13.8871 43.22 16.9963C45.2974 20.1054 46.4063 23.7607 46.4063 27.5C46.4006 32.5125 44.4068 37.3181 40.8625 40.8625C37.3181 44.4068 32.5125 46.4006 27.5 46.4063ZM37.8125 27.5C37.8125 27.9558 37.6314 28.393 37.3091 28.7153C36.9868 29.0377 36.5496 29.2188 36.0938 29.2188H23.0549L26.9973 33.159C27.157 33.3187 27.2836 33.5083 27.3701 33.7169C27.4565 33.9255 27.501 34.1492 27.501 34.375C27.501 34.6008 27.4565 34.8245 27.3701 35.0331C27.2836 35.2417 27.157 35.4313 26.9973 35.591C26.8376 35.7507 26.648 35.8774 26.4394 35.9638C26.2307 36.0502 26.0071 36.0947 25.7813 36.0947C25.5554 36.0947 25.3318 36.0502 25.1232 35.9638C24.9145 35.8774 24.7249 35.7507 24.5652 35.591L17.6902 28.716C17.5304 28.5564 17.4037 28.3668 17.3172 28.1582C17.2307 27.9495 17.1862 27.7259 17.1862 27.5C17.1862 27.2741 17.2307 27.0505 17.3172 26.8418C17.4037 26.6332 17.5304 26.4436 17.6902 26.284L24.5652 19.409C24.8878 19.0865 25.3252 18.9053 25.7813 18.9053C26.2374 18.9053 26.6748 19.0865 26.9973 19.409C27.3198 19.7315 27.501 20.1689 27.501 20.625C27.501 21.0811 27.3198 21.5185 26.9973 21.841L23.0549 25.7813H36.0938C36.5496 25.7813 36.9868 25.9623 37.3091 26.2847C37.6314 26.607 37.8125 27.0442 37.8125 27.5Z" fill="#0841D3"/>
</svg>
