<svg width="20" height="21" viewBox="0 0 20 21" fill="none" xmlns="http://www.w3.org/2000/svg">
<path d="M13.125 7.57751V11.3275C13.125 11.4933 13.0592 11.6522 12.9419 11.7695C12.8247 11.8867 12.6658 11.9525 12.5 11.9525C12.3342 11.9525 12.1753 11.8867 12.0581 11.7695C11.9409 11.6522 11.875 11.4933 11.875 11.3275V9.08611L7.94219 13.0197C7.88412 13.0778 7.81518 13.1238 7.73931 13.1553C7.66344 13.1867 7.58213 13.2029 7.5 13.2029C7.41788 13.2029 7.33656 13.1867 7.26069 13.1553C7.18482 13.1238 7.11588 13.0778 7.05782 13.0197C6.99975 12.9616 6.95368 12.8927 6.92226 12.8168C6.89083 12.741 6.87466 12.6596 6.87466 12.5775C6.87466 12.4954 6.89083 12.4141 6.92226 12.3382C6.95368 12.2623 6.99975 12.1934 7.05782 12.1353L10.9914 8.20251H8.75C8.58424 8.20251 8.42527 8.13667 8.30806 8.01946C8.19085 7.90225 8.125 7.74328 8.125 7.57751C8.125 7.41175 8.19085 7.25278 8.30806 7.13557C8.42527 7.01836 8.58424 6.95251 8.75 6.95251H12.5C12.6658 6.95251 12.8247 7.01836 12.9419 7.13557C13.0592 7.25278 13.125 7.41175 13.125 7.57751ZM18.125 10.0775C18.125 11.6845 17.6485 13.2554 16.7557 14.5915C15.8629 15.9277 14.594 16.9691 13.1093 17.584C11.6247 18.199 9.99099 18.3599 8.4149 18.0464C6.8388 17.7329 5.39106 16.9591 4.25476 15.8228C3.11846 14.6865 2.34463 13.2387 2.03112 11.6626C1.71762 10.0865 1.87852 8.45286 2.49348 6.96821C3.10844 5.48356 4.14985 4.21461 5.486 3.32182C6.82214 2.42904 8.39303 1.95251 10 1.95251C12.1542 1.95479 14.2195 2.81154 15.7427 4.33478C17.266 5.85802 18.1227 7.92333 18.125 10.0775ZM16.875 10.0775C16.875 8.71777 16.4718 7.38856 15.7164 6.25797C14.9609 5.12738 13.8872 4.2462 12.631 3.72584C11.3747 3.20549 9.99238 3.06934 8.65876 3.33462C7.32514 3.59989 6.10013 4.25467 5.13864 5.21616C4.17716 6.17764 3.52238 7.40265 3.2571 8.73627C2.99183 10.0699 3.12798 11.4522 3.64833 12.7085C4.16868 13.9647 5.04987 15.0384 6.18046 15.7939C7.31105 16.5493 8.64026 16.9525 10 16.9525C11.8227 16.9504 13.5702 16.2255 14.8591 14.9366C16.1479 13.6477 16.8729 11.9002 16.875 10.0775Z" fill="white"/>
</svg>
