<svg width="55" height="55" viewBox="0 0 55 55" fill="none" xmlns="http://www.w3.org/2000/svg">
<path d="M27.5 5.15625C23.0808 5.15625 18.7609 6.46669 15.0865 8.92185C11.4121 11.377 8.54822 14.8666 6.85708 18.9494C5.16593 23.0322 4.72345 27.5248 5.58559 31.8591C6.44773 36.1933 8.57576 40.1746 11.7006 43.2994C14.8254 46.4243 18.8067 48.5523 23.141 49.4144C27.4752 50.2766 31.9678 49.8341 36.0506 48.1429C40.1334 46.4518 43.623 43.5879 46.0782 39.9135C48.5333 36.2391 49.8438 31.9192 49.8438 27.5C49.8375 21.576 47.4814 15.8964 43.2925 11.7075C39.1036 7.51858 33.424 5.16251 27.5 5.15625ZM27.5 46.4063C23.7607 46.4063 20.1054 45.2974 16.9963 43.22C13.8871 41.1425 11.4639 38.1898 10.0329 34.7351C8.60194 31.2804 8.22754 27.479 8.95704 23.8116C9.68654 20.1441 11.4872 16.7754 14.1313 14.1313C16.7754 11.4872 20.1441 9.68653 23.8116 8.95703C27.479 8.22753 31.2805 8.60193 34.7351 10.0329C38.1898 11.4639 41.1425 13.8871 43.22 16.9963C45.2974 20.1054 46.4063 23.7607 46.4063 27.5C46.4006 32.5125 44.4068 37.3181 40.8625 40.8625C37.3181 44.4068 32.5125 46.4006 27.5 46.4063ZM37.3098 26.284C37.4696 26.4436 37.5964 26.6332 37.6828 26.8418C37.7693 27.0505 37.8139 27.2741 37.8139 27.5C37.8139 27.7259 37.7693 27.9495 37.6828 28.1582C37.5964 28.3668 37.4696 28.5564 37.3098 28.716L30.4348 35.591C30.1123 35.9135 29.6749 36.0947 29.2188 36.0947C28.7627 36.0947 28.3253 35.9135 28.0027 35.591C27.6802 35.2685 27.4991 34.8311 27.4991 34.375C27.4991 33.9189 27.6802 33.4815 28.0027 33.159L31.9451 29.2188H18.9063C18.4504 29.2188 18.0132 29.0377 17.6909 28.7153C17.3686 28.393 17.1875 27.9558 17.1875 27.5C17.1875 27.0442 17.3686 26.607 17.6909 26.2847C18.0132 25.9623 18.4504 25.7813 18.9063 25.7813H31.9451L28.0027 21.841C27.6802 21.5185 27.4991 21.0811 27.4991 20.625C27.4991 20.1689 27.6802 19.7315 28.0027 19.409C28.3253 19.0865 28.7627 18.9053 29.2188 18.9053C29.6749 18.9053 30.1123 19.0865 30.4348 19.409L37.3098 26.284Z" fill="#0841D3"/>
</svg>
