<svg width="46" height="46" viewBox="0 0 46 46" fill="none" xmlns="http://www.w3.org/2000/svg">
<g clip-path="url(#clip0_11_486)">
<path d="M30.4878 37.2473H15.4739C15.2028 37.2473 14.9428 37.355 14.7511 37.5467C14.5594 37.7384 14.4517 37.9984 14.4517 38.2695C14.4517 38.5406 14.5594 38.8007 14.7511 38.9924C14.9428 39.1841 15.2028 39.2918 15.4739 39.2918H30.4878C30.7589 39.2918 31.0189 39.1841 31.2106 38.9924C31.4023 38.8007 31.51 38.5406 31.51 38.2695C31.51 37.9984 31.4023 37.7384 31.2106 37.5467C31.0189 37.355 30.7589 37.2473 30.4878 37.2473Z" fill="#0841D3"/>
<path d="M28.1111 41.0806H17.8889C17.6178 41.0806 17.3578 41.1883 17.1661 41.38C16.9744 41.5717 16.8667 41.8317 16.8667 42.1028C16.8667 42.3739 16.9744 42.6339 17.1661 42.8256C17.3578 43.0173 17.6178 43.125 17.8889 43.125H28.1111C28.3823 43.125 28.6423 43.0173 28.834 42.8256C29.0257 42.6339 29.1334 42.3739 29.1334 42.1028C29.1334 41.8317 29.0257 41.5717 28.834 41.38C28.6423 41.1883 28.3823 41.0806 28.1111 41.0806Z" fill="#0841D3"/>
<path d="M23 2.875C19.2723 2.875 15.6972 4.35585 13.0613 6.99178C10.4253 9.62771 8.94448 13.2028 8.94448 16.9306C8.92307 18.9733 9.3597 20.9949 10.2223 22.8467C10.6489 23.6354 11.127 24.3952 11.6534 25.1211C12.6769 26.4932 13.5348 27.9815 14.2089 29.555C14.6727 31.2205 14.9259 32.9376 14.9628 34.6661H22.2334V27.6128L18.5789 23.6133L22.4123 19.78C22.6067 19.6038 22.8615 19.5091 23.1238 19.5156C23.3861 19.5221 23.6359 19.6292 23.8214 19.8147C24.007 20.0002 24.1141 20.25 24.1205 20.5124C24.127 20.7747 24.0323 21.0294 23.8561 21.2239L21.4411 23.6389L24.2778 26.8333V34.7172H31.05C31.0869 32.9887 31.3402 31.2716 31.8039 29.6061C32.4781 28.0326 33.3359 26.5443 34.3595 25.1722C34.8844 24.4212 35.3583 23.6357 35.7778 22.8211C36.6404 20.9693 37.077 18.9477 37.0556 16.905C37.0488 13.1817 35.565 9.61314 32.9298 6.98274C30.2946 4.35233 26.7234 2.87499 23 2.875ZM23.575 15.3333L20.0867 18.8217C19.9937 18.9243 19.8809 19.0069 19.755 19.0646C19.6291 19.1223 19.4928 19.1538 19.3543 19.1572C19.2159 19.1606 19.0782 19.1359 18.9496 19.0844C18.8211 19.033 18.7043 18.956 18.6064 18.8581C18.5084 18.7602 18.4314 18.6434 18.38 18.5148C18.3286 18.3863 18.3039 18.2486 18.3073 18.1101C18.3107 17.9717 18.3422 17.8354 18.3999 17.7095C18.4575 17.5836 18.5402 17.4708 18.6428 17.3778L22.1311 13.8894C22.2241 13.7868 22.337 13.7042 22.4629 13.6465C22.5888 13.5888 22.7251 13.5573 22.8635 13.5539C23.0019 13.5505 23.1396 13.5753 23.2682 13.6267C23.3968 13.6781 23.5136 13.7551 23.6115 13.853C23.7094 13.9509 23.7864 14.0677 23.8378 14.1963C23.8892 14.3249 23.914 14.4625 23.9106 14.601C23.9072 14.7394 23.8757 14.8757 23.818 15.0016C23.7603 15.1275 23.6777 15.2404 23.575 15.3333Z" fill="#0841D3"/>
</g>
<defs>
<clipPath id="clip0_11_486">
<rect width="46" height="46" fill="white"/>
</clipPath>
</defs>
</svg>
