<svg width="46" height="36" viewBox="0 0 46 36" fill="none" xmlns="http://www.w3.org/2000/svg">
<path d="M5.175 6.1875C5.175 5.14321 5.59906 4.14169 6.3539 3.40327C7.10873 2.66484 8.1325 2.25 9.2 2.25C10.2675 2.25 11.2913 2.66484 12.0461 3.40327C12.8009 4.14169 13.225 5.14321 13.225 6.1875C13.225 7.23179 12.8009 8.23331 12.0461 8.97173C11.2913 9.71016 10.2675 10.125 9.2 10.125C8.1325 10.125 7.10873 9.71016 6.3539 8.97173C5.59906 8.23331 5.175 7.23179 5.175 6.1875ZM4.6 17.2758C3.88125 18.0633 3.45 19.1109 3.45 20.25C3.45 21.3891 3.88125 22.4367 4.6 23.2242V17.2758ZM14.9787 13.8094C12.8441 15.6586 11.5 18.3656 11.5 21.375C11.5 23.7867 12.3625 26.0016 13.8 27.7383V29.25C13.8 30.4945 12.7722 31.5 11.5 31.5H6.9C5.62781 31.5 4.6 30.4945 4.6 29.25V27.3656C1.88313 26.1 0 23.393 0 20.25C0 15.8977 3.60094 12.375 8.05 12.375H10.35C12.075 12.375 13.6706 12.9023 14.9787 13.8023V13.8094ZM32.2 29.25V27.7383C33.6375 26.0016 34.5 23.7867 34.5 21.375C34.5 18.3656 33.1559 15.6586 31.0212 13.8023C32.3294 12.9023 33.925 12.375 35.65 12.375H37.95C42.3991 12.375 46 15.8977 46 20.25C46 23.393 44.1169 26.1 41.4 27.3656V29.25C41.4 30.4945 40.3722 31.5 39.1 31.5H34.5C33.2278 31.5 32.2 30.4945 32.2 29.25ZM32.775 6.1875C32.775 5.14321 33.1991 4.14169 33.9539 3.40327C34.7087 2.66484 35.7325 2.25 36.8 2.25C37.8675 2.25 38.8913 2.66484 39.6461 3.40327C40.4009 4.14169 40.825 5.14321 40.825 6.1875C40.825 7.23179 40.4009 8.23331 39.6461 8.97173C38.8913 9.71016 37.8675 10.125 36.8 10.125C35.7325 10.125 34.7087 9.71016 33.9539 8.97173C33.1991 8.23331 32.775 7.23179 32.775 6.1875ZM41.4 17.2758V23.2312C42.1187 22.4367 42.55 21.3961 42.55 20.257C42.55 19.118 42.1187 18.0703 41.4 17.2828V17.2758ZM23 2.25C24.22 2.25 25.39 2.72411 26.2527 3.56802C27.1154 4.41193 27.6 5.55653 27.6 6.75C27.6 7.94347 27.1154 9.08807 26.2527 9.93198C25.39 10.7759 24.22 11.25 23 11.25C21.78 11.25 20.61 10.7759 19.7473 9.93198C18.8846 9.08807 18.4 7.94347 18.4 6.75C18.4 5.55653 18.8846 4.41193 19.7473 3.56802C20.61 2.72411 21.78 2.25 23 2.25ZM17.25 21.375C17.25 22.5141 17.6812 23.5547 18.4 24.3492V18.4008C17.6812 19.1953 17.25 20.2359 17.25 21.375ZM27.6 18.4008V24.3562C28.3187 23.5617 28.75 22.5211 28.75 21.382C28.75 20.243 28.3187 19.1953 27.6 18.4078V18.4008ZM32.2 21.375C32.2 24.518 30.3169 27.225 27.6 28.4906V31.5C27.6 32.7445 26.5722 33.75 25.3 33.75H20.7C19.4278 33.75 18.4 32.7445 18.4 31.5V28.4906C15.6831 27.225 13.8 24.518 13.8 21.375C13.8 17.0227 17.4009 13.5 21.85 13.5H24.15C28.5991 13.5 32.2 17.0227 32.2 21.375Z" fill="#0841D3"/>
</svg>
