<svg width="19" height="20" viewBox="0 0 19 20" fill="none" xmlns="http://www.w3.org/2000/svg">
<path d="M9.32198 5.08664C8.74582 5.08664 8.1826 5.2575 7.70353 5.5776C7.22447 5.8977 6.85109 6.35267 6.6306 6.88497C6.41011 7.41728 6.35242 8.00301 6.46482 8.5681C6.57723 9.1332 6.85468 9.65227 7.26209 10.0597C7.6695 10.4671 8.18857 10.7445 8.75366 10.8569C9.31875 10.9693 9.90449 10.9117 10.4368 10.6912C10.9691 10.4707 11.4241 10.0973 11.7442 9.61823C12.0643 9.13917 12.2351 8.57594 12.2351 7.99978C12.2351 7.22717 11.9282 6.4862 11.3819 5.93988C10.8356 5.39356 10.0946 5.08664 9.32198 5.08664ZM9.32198 9.74766C8.97629 9.74766 8.63835 9.64515 8.35091 9.45309C8.06348 9.26103 7.83945 8.98805 7.70715 8.66867C7.57486 8.34928 7.54025 7.99784 7.60769 7.65879C7.67513 7.31973 7.8416 7.00829 8.08605 6.76384C8.33049 6.5194 8.64193 6.35293 8.98099 6.28548C9.32005 6.21804 9.67149 6.25266 9.99087 6.38495C10.3103 6.51724 10.5832 6.74127 10.7753 7.02871C10.9674 7.31615 11.0699 7.65408 11.0699 7.99978C11.0699 8.46335 10.8857 8.90793 10.5579 9.23572C10.2301 9.56351 9.78555 9.74766 9.32198 9.74766ZM9.32198 1.59088C7.62283 1.59281 5.99382 2.26865 4.79234 3.47013C3.59085 4.67162 2.91501 6.30063 2.91309 7.99978C2.91309 10.2866 3.96983 12.7103 5.97188 15.0095C6.87147 16.0485 7.88395 16.984 8.99061 17.7988C9.08858 17.8675 9.20529 17.9043 9.3249 17.9043C9.44451 17.9043 9.56122 17.8675 9.65918 17.7988C10.7638 16.9837 11.7743 16.0481 12.6721 15.0095C14.6712 12.7103 15.7309 10.2866 15.7309 7.99978C15.729 6.30063 15.0531 4.67162 13.8516 3.47013C12.6501 2.26865 11.0211 1.59281 9.32198 1.59088ZM9.32198 16.5935C8.11813 15.6468 4.07834 12.1692 4.07834 7.99978C4.07834 6.60908 4.63079 5.27534 5.61417 4.29196C6.59754 3.30859 7.93128 2.75614 9.32198 2.75614C10.7127 2.75614 12.0464 3.30859 13.0298 4.29196C14.0132 5.27534 14.5656 6.60908 14.5656 7.99978C14.5656 12.1677 10.5258 15.6468 9.32198 16.5935Z" fill="#20241E" fill-opacity="0.8"/>
</svg>
