<svg width="17" height="17" viewBox="0 0 17 17" fill="none" xmlns="http://www.w3.org/2000/svg">
<path d="M8.27676 4.13848C7.76519 4.13848 7.26512 4.29018 6.83977 4.57439C6.41442 4.8586 6.0829 5.26256 5.88713 5.73518C5.69136 6.20781 5.64014 6.72787 5.73994 7.2296C5.83974 7.73134 6.08608 8.19221 6.44781 8.55394C6.80955 8.91567 7.27042 9.16201 7.77215 9.26181C8.27389 9.36162 8.79395 9.31039 9.26657 9.11463C9.7392 8.91886 10.1432 8.58734 10.4274 8.16199C10.7116 7.73664 10.8633 7.23656 10.8633 6.725C10.8633 6.03901 10.5908 5.38112 10.1057 4.89606C9.62063 4.41099 8.96274 4.13848 8.27676 4.13848ZM8.27676 8.27691C7.96982 8.27691 7.66977 8.18589 7.41456 8.01536C7.15935 7.84484 6.96044 7.60246 6.84298 7.31889C6.72552 7.03531 6.69479 6.72328 6.75467 6.42224C6.81455 6.1212 6.96235 5.84467 7.17939 5.62763C7.39643 5.4106 7.67295 5.26279 7.97399 5.20291C8.27503 5.14303 8.58707 5.17376 8.87065 5.29122C9.15422 5.40868 9.3966 5.60759 9.56712 5.8628C9.73765 6.11801 9.82866 6.41806 9.82866 6.725C9.82866 7.13659 9.66516 7.53132 9.37412 7.82236C9.08308 8.1134 8.68835 8.27691 8.27676 8.27691ZM8.27676 1.03467C6.76811 1.03638 5.32175 1.63644 4.25497 2.70322C3.1882 3.76999 2.58814 5.21635 2.58643 6.725C2.58643 8.75541 3.52468 10.9074 5.30227 12.9488C6.10099 13.8713 6.99996 14.7019 7.98254 15.4254C8.06952 15.4863 8.17314 15.519 8.27934 15.519C8.38554 15.519 8.48917 15.4863 8.57615 15.4254C9.55692 14.7016 10.4541 13.871 11.2512 12.9488C13.0262 10.9074 13.9671 8.75541 13.9671 6.725C13.9654 5.21635 13.3653 3.76999 12.2985 2.70322C11.2318 1.63644 9.7854 1.03638 8.27676 1.03467ZM8.27676 14.3552C7.20788 13.5146 3.62103 10.4269 3.62103 6.725C3.62103 5.49022 4.11154 4.30602 4.98466 3.4329C5.85778 2.55979 7.04198 2.06927 8.27676 2.06927C9.51153 2.06927 10.6957 2.55979 11.5689 3.4329C12.442 4.30602 12.9325 5.49022 12.9325 6.725C12.9325 10.4257 9.34563 13.5146 8.27676 14.3552Z" fill="#0841D3"/>
</svg>
