<svg width="46" height="46" viewBox="0 0 46 46" fill="none" xmlns="http://www.w3.org/2000/svg">
<path d="M7.66675 42.1667V30.8105C7.66675 30.1716 7.8188 29.5646 8.12291 28.9896C8.42703 28.4146 8.84997 27.9515 9.39175 27.6001L11.5001 26.2105C11.7237 28.8938 12.0751 31.1778 12.5542 33.0626C13.0334 34.9473 13.7841 37.0396 14.8063 39.3396L7.66675 42.1667ZM17.6813 38.3334C16.5633 36.2251 15.7327 33.989 15.1897 31.6251C14.6466 29.2612 14.3751 26.8174 14.3751 24.2938C14.3751 20.3008 15.166 16.5396 16.7479 13.0104C18.3298 9.48118 20.4139 6.80551 23.0001 4.9834C25.5876 6.80423 27.6723 9.4799 29.2542 13.0104C30.8361 16.5409 31.6264 20.302 31.6251 24.2938C31.6251 26.7855 31.3536 29.2056 30.8105 31.5541C30.2674 33.9027 29.4369 36.1625 28.3188 38.3334H17.6813ZM23.0001 24.9167C24.0542 24.9167 24.957 24.5417 25.7083 23.7916C26.4597 23.0416 26.8347 22.1388 26.8334 21.0834C26.8321 20.028 26.4571 19.1258 25.7083 18.3771C24.9596 17.6283 24.0568 17.2526 23.0001 17.2501C21.9434 17.2475 21.0412 17.6232 20.2937 18.3771C19.5462 19.131 19.1706 20.0331 19.1667 21.0834C19.1629 22.1337 19.5386 23.0365 20.2937 23.7916C21.0489 24.5468 21.951 24.9218 23.0001 24.9167ZM38.3334 42.1667L31.1938 39.3396C32.2161 37.0396 32.9667 34.9473 33.4459 33.0626C33.9251 31.1778 34.2765 28.8938 34.5001 26.2105L36.6084 27.6001C37.1515 27.9515 37.5751 28.4146 37.8792 28.9896C38.1833 29.5646 38.3347 30.1716 38.3334 30.8105V42.1667Z" fill="#0841D3"/>
</svg>
